<svg width="148" height="115" viewBox="0 0 148 115" fill="none" xmlns="http://www.w3.org/2000/svg">
<path d="M82 32L98.5616 0.759586" stroke="white"/>
<path d="M0.939682 47.9595V54.6518H3.05397H5.16825V52.0688V49.4858H5.75556C6.5073 49.4858 7.00063 50.0494 8.12825 52.1862C8.62159 53.149 9.11492 53.9474 9.23238 53.9474C9.32635 53.9474 9.39683 54.1117 9.39683 54.2996C9.39683 54.5814 9.79619 54.6518 11.6286 54.6518C12.8502 54.6518 13.8603 54.5579 13.8603 54.464C13.8603 53.9239 11.746 50.4721 10.9473 49.6737C10.36 49.1101 10.1721 48.7814 10.3835 48.7814C10.5949 48.7814 11.1822 48.3822 11.7225 47.8891C13.367 46.4097 13.461 44.0381 11.9105 42.5117C10.8533 41.4316 10.0311 41.2907 5.00381 41.2672H0.939682V47.9595ZM8.48063 44.5547C8.76254 44.719 8.92698 45.0478 8.92698 45.447C8.92698 46.5506 8.62159 46.7619 6.83619 46.8559L5.16825 46.9498V45.6348V44.3198H6.60127C7.37651 44.3198 8.22222 44.4372 8.48063 44.5547Z" fill="white"/>
<path d="M27.7206 47.9595V54.6518H29.3651C30.8451 54.6518 31.0095 54.6049 31.0095 54.2057C31.0095 53.4777 31.3384 53.4543 32.1841 54.0648C35.5435 56.5539 39.3257 52.6089 38.0337 47.9595C37.6578 46.668 37 45.7992 35.9429 45.2591C34.7683 44.6721 33.7111 44.6721 32.5835 45.2591C32.1137 45.5174 31.6673 45.7287 31.5968 45.7287C31.5264 45.7287 31.4794 44.719 31.4794 43.498V41.2672H29.6H27.7206V47.9595ZM34.2045 47.8656C34.7918 48.5231 34.8152 50.7773 34.2279 51.6696C33.6876 52.515 32.3486 52.5619 31.8552 51.7636C31.127 50.5895 31.2679 48.2883 32.0902 47.6777C32.7245 47.2316 33.7111 47.302 34.2045 47.8656Z" fill="white"/>
<path d="M88.7295 41.4316C88.6355 41.502 88.5651 44.5312 88.5651 48.1239V54.6518H93.8508H99.1365V53.0081V51.3644H95.8476H92.5587V46.3158V41.2672H90.7263C89.7162 41.2672 88.8 41.3377 88.7295 41.4316Z" fill="white"/>
<path d="M63.6165 42.3943C62.113 43.2162 62.0191 43.3101 62.0191 44.1085C62.0191 44.9304 61.9956 44.9773 61.0324 45.0947C60.4686 45.1652 59.5759 45.1182 59.0356 44.9538C58.0959 44.719 58.0019 44.7425 57.0857 45.447L56.146 46.2219V45.6113C56.146 45.0478 56.0991 45.0243 54.5016 45.0243H52.8571V49.8381V54.6518H54.5956H56.334L56.4044 51.7636C56.5219 48.1709 56.8038 47.5368 58.3073 47.6543C59.247 47.7012 59.2705 47.6777 59.6464 46.6915C60.1867 45.1887 60.6095 45.1652 60.6095 46.6445C60.6095 47.8186 60.633 47.8421 61.3143 47.8421H62.0191V50.519C62.0191 52.8437 62.0895 53.2664 62.5124 53.783C63.1467 54.6049 64.5562 54.9571 66.2946 54.7692L67.6571 54.6049V53.7595C67.6571 52.6089 67.4457 52.3506 66.4825 52.2567L65.6603 52.1862L65.5898 50.0024L65.5194 47.8421H66.6H67.6571V46.4332V45.0243H66.6H65.5429V43.2632C65.5429 42.3004 65.4724 41.502 65.3784 41.502C65.261 41.5255 64.4857 41.9247 63.6165 42.3943Z" fill="white"/>
<path d="M18.9111 45.0008C16.327 45.6818 14.941 47.349 14.9175 49.8615C14.9175 52.8202 17.0083 54.7223 20.3206 54.7457C22.4114 54.7692 23.9384 54.0648 24.9956 52.5854C25.6533 51.6461 25.7238 51.3878 25.7238 49.8381C25.7238 48.3117 25.6533 48.0065 25.0191 47.0907C24.5962 46.4802 23.8914 45.8696 23.2571 45.5644C22.0825 44.9773 19.9918 44.719 18.9111 45.0008ZM21.5892 47.8186C22.5524 48.7814 22.4114 51.5053 21.3778 52.0688C20.767 52.3976 19.6629 52.3741 19.1695 51.9984C18.3003 51.3644 18.2298 48.7579 19.0521 47.8656C19.6629 47.2316 20.9784 47.2081 21.5892 47.8186Z" fill="white"/>
<path d="M42.9905 45.2356C40.054 46.2688 38.8794 49.5798 40.4063 52.4445C41.44 54.37 44.1181 55.2623 47.0076 54.6518C48.1822 54.3935 48.6051 54.1587 49.4743 53.3134C50.0381 52.7263 50.5079 52.1862 50.5079 52.0923C50.5079 51.9749 49.7327 51.834 48.8165 51.7636C47.5244 51.6696 47.0076 51.7401 46.7257 51.9749C46.1619 52.468 44.494 52.3976 43.9302 51.834C43.6717 51.5757 43.4603 51.2 43.4603 51.0121C43.4603 50.7069 44.0241 50.6599 47.1251 50.6599H50.8133L50.6724 49.2275C50.4375 46.5271 48.793 45.0713 45.7155 44.8599C44.7054 44.813 43.9067 44.9069 42.9905 45.2356ZM46.5378 47.6073C46.7727 47.7482 46.9841 48.0769 46.9841 48.3117C46.9841 48.7344 46.8197 48.7814 45.2222 48.7814C43.8362 48.7814 43.4603 48.7109 43.4603 48.4526C43.4603 47.5838 45.4571 47.0437 46.5378 47.6073Z" fill="white"/>
<path d="M73.4127 44.9304C71.3689 45.447 70.3352 46.2688 69.4895 48.0535C68.8787 49.3684 69.0197 50.9652 69.8889 52.4445C71.5098 55.2154 76.3492 55.6381 78.7219 53.196C80.9536 50.8947 80.3428 46.9498 77.5238 45.5644C76.4667 45.0478 74.3054 44.719 73.4127 44.9304ZM75.9028 47.8186C76.3492 48.1943 76.4432 48.4761 76.4667 49.6502C76.4667 51.5288 75.9733 52.3036 74.7517 52.3036C73.6241 52.2802 73.0603 51.834 72.8254 50.7539C72.2616 48.2413 74.1644 46.4097 75.9028 47.8186Z" fill="white"/>
<path d="M103.624 45.2356C102.097 45.8227 101.838 46.0105 101.11 47.2785C100.264 48.7344 100.123 50.3077 100.757 51.7401C101.415 53.196 102.378 54.0178 104.046 54.5579C105.15 54.9101 105.573 54.9336 106.842 54.6988C108.862 54.37 110.06 53.5482 110.789 51.9984C111.094 51.3174 111.352 50.3312 111.352 49.7911C111.352 48.617 110.671 46.9733 109.919 46.2688C108.486 44.9538 105.667 44.4842 103.624 45.2356ZM107.1 47.8186C108.064 48.7814 107.923 51.5053 106.889 52.0688C106.161 52.4445 105.197 52.3271 104.61 51.7871C103.858 51.0826 103.835 48.8988 104.563 47.983C105.15 47.2316 106.419 47.1377 107.1 47.8186Z" fill="white"/>
<path d="M118.4 45.1652C117.954 45.353 117.413 45.6818 117.178 45.8931C116.803 46.2219 116.756 46.1984 116.615 45.6348C116.474 45.0478 116.403 45.0243 114.853 45.0243H113.232V51.7166V58.4324L115.064 58.3619L116.873 58.2915L116.943 56.1077C116.967 54.9336 117.084 53.9474 117.178 53.9474C117.272 53.9474 117.578 54.0883 117.836 54.2761C119.786 55.6381 122.863 54.3466 123.568 51.881C124.343 49.0866 123.239 45.987 121.196 45.1652C120.068 44.6955 119.457 44.6955 118.4 45.1652ZM119.739 48.0065C119.997 48.4057 120.162 49.0866 120.162 49.8381C120.162 51.8575 119.105 52.8202 117.695 52.0688C116.685 51.5287 116.568 48.7344 117.484 47.8186C118.165 47.1377 119.246 47.2316 119.739 48.0065Z" fill="white"/>
<path d="M128.502 45.2356C124.109 46.7854 124.132 52.9377 128.502 54.5109C130.945 55.3798 134.187 54.5814 135.502 52.7968C136.113 51.9514 136.09 51.9279 134.022 51.7401C132.989 51.6462 132.495 51.6931 132.166 51.9514C131.133 52.7498 128.971 52.0923 128.971 51.0122C128.971 50.7069 129.535 50.6599 132.636 50.6599H136.324L136.183 49.2275C135.949 46.5976 134.304 45.1417 131.297 44.8834C130.17 44.813 129.465 44.8834 128.502 45.2356ZM132.049 47.6073C132.284 47.7482 132.495 48.0534 132.495 48.3117C132.495 48.6875 132.284 48.7579 130.733 48.8283C129.206 48.8988 128.971 48.8518 128.971 48.4996C128.971 47.5838 130.945 47.0202 132.049 47.6073Z" fill="white"/>
<path d="M140.717 45.0008C137.687 45.6348 136.912 48.8518 139.472 50.0729C139.966 50.3077 141.211 50.6834 142.221 50.8713C143.396 51.1061 144.171 51.3879 144.312 51.6462C145.04 52.7733 142.385 53.2664 141.375 52.2097C140.882 51.6696 140.717 51.6462 139.261 51.7636C138.368 51.834 137.664 51.9984 137.664 52.1158C137.664 52.8202 138.509 53.8065 139.496 54.2526C141.117 54.9806 144.429 54.9806 145.839 54.2292C148.822 52.6324 148.164 49.4623 144.735 48.8283C144.006 48.6874 142.949 48.4761 142.362 48.3822C141.446 48.2178 141.305 48.1239 141.305 47.6073C141.305 47.0907 141.422 47.0202 142.291 46.9498C143.02 46.9028 143.396 46.9968 143.724 47.3255C144.124 47.7247 144.406 47.7717 145.745 47.6777C146.591 47.6073 147.295 47.4899 147.295 47.396C147.295 46.9498 146.262 45.6818 145.604 45.353C144.758 44.9069 142.033 44.719 140.717 45.0008Z" fill="white"/>
<path d="M78.4635 63.7862C76.1143 64.2794 74.7047 66.1109 74.7047 68.647C74.7047 71.23 76.0438 72.9676 78.393 73.4372C82.0343 74.2121 85.0882 71.9579 85.0648 68.5296C85.0648 65.5474 83.5613 63.9271 80.6482 63.6923C79.8965 63.6453 78.9098 63.6923 78.4635 63.7862ZM81.494 64.6316C82.3867 65.0777 82.974 66.4162 83.0914 68.2713C83.3028 71.4883 82.1282 73.1085 79.7086 72.9206C77.5473 72.7328 76.7251 71.5352 76.7016 68.5061C76.7016 66.2988 77.1479 65.1247 78.252 64.5846C79.0273 64.1854 80.6952 64.2089 81.494 64.6316Z" fill="white"/>
<path d="M30.7746 64.0211C30.7746 64.1385 30.9626 64.2794 31.1975 64.3263C31.5733 64.4202 31.6673 64.7725 31.7848 66.2988C31.8553 67.332 31.8318 69.2105 31.7613 70.502C31.5968 72.7093 31.5733 72.8502 31.08 72.9206C29.9289 73.085 30.6102 73.4372 32.0667 73.4372C32.9359 73.4372 33.5937 73.3433 33.5937 73.2024C33.5937 73.0615 33.4057 72.9676 33.1473 72.9676C32.5365 72.9676 32.4191 72.3571 32.4191 69.0227C32.4191 66.7919 32.4895 66.1344 32.7245 66.2049C32.8654 66.2753 33.7581 67.919 34.6508 69.868C35.567 71.817 36.4127 73.4138 36.5772 73.4372C36.7181 73.4372 36.9295 73.2259 37 72.9441C37.3759 71.7935 40.1949 66.1579 40.4064 66.1579C40.6648 66.1579 40.7352 71.9579 40.5003 72.5919C40.4299 72.8032 40.1479 72.9676 39.913 72.9676C39.6781 72.9676 39.4667 73.0615 39.4667 73.2024C39.4667 73.3433 40.3359 73.4372 41.581 73.4372C42.7556 73.4372 43.6952 73.3433 43.6952 73.2259C43.6952 73.1085 43.4603 72.9676 43.1784 72.9206C42.6381 72.8502 42.6381 72.8267 42.6381 68.6235C42.6381 64.4202 42.6381 64.3968 43.1784 64.3263C44.306 64.1619 43.6248 63.8097 42.1683 63.8097H40.6648L39.0203 67.2381C38.0102 69.3045 37.2584 70.596 37.1175 70.502C36.8826 70.3611 36.2248 69.0227 34.5099 65.2656L33.8521 63.8097H32.3016C31.4559 63.8097 30.7746 63.9036 30.7746 64.0211Z" fill="white"/>
<path d="M44.8698 64.0211C44.8698 64.1385 45.1048 64.2794 45.4102 64.3263C45.927 64.3968 45.927 64.4437 45.9975 68.4121C46.0444 71.77 45.9975 72.4745 45.6921 72.7328C45.5041 72.8972 45.3397 73.1085 45.3397 73.2259C45.3397 73.3433 46.8667 73.4372 48.746 73.4372H52.1524V72.7798C52.1524 72.4275 52.2229 71.9109 52.2933 71.6057C52.3873 71.3239 52.3403 71.0891 52.2229 71.0891C52.0819 71.0891 51.894 71.4413 51.7765 71.8405L51.5416 72.6154L49.7327 72.6858L47.9238 72.7563V70.7368V68.7174L49.2864 68.7879C50.461 68.8583 50.6254 68.9287 50.6959 69.3749C50.8603 70.5255 51.2127 69.8211 51.2127 68.3652C51.2127 67.4024 51.1187 66.8858 50.9778 66.9798C50.8603 67.0502 50.7429 67.332 50.7429 67.5903C50.7429 67.9895 50.5784 68.0364 49.2864 68.0364H47.8064L47.8768 66.2753L47.9708 64.5142H49.7092C51.3771 64.5142 51.4476 64.5377 51.5886 65.1247C51.7765 65.8761 52.1524 65.43 52.1524 64.4437V63.8097H48.5111C46.4203 63.8097 44.8698 63.9036 44.8698 64.0211Z" fill="white"/>
<path d="M53.4445 64.0445C53.5149 64.1619 53.7733 64.2793 54.0318 64.2793C54.666 64.2793 54.7365 64.702 54.7365 68.2713C54.7365 72.3571 54.6191 72.9676 53.8908 72.9676C53.5854 72.9676 53.327 73.0615 53.327 73.2024C53.327 73.3433 54.0318 73.4373 54.9714 73.4373C55.9111 73.4373 56.6159 73.3433 56.6159 73.2024C56.6159 73.0615 56.3575 72.9676 56.0286 72.9676H55.4413V69.6802C55.4413 67.8486 55.5352 66.3927 55.6527 66.3927C55.7702 66.3927 56.1695 66.7919 56.5454 67.285C57.3206 68.3417 59.8343 71.2534 61.2203 72.6624C62.9118 74.4 62.9352 74.3296 63.0057 69.0227C63.0762 64.4202 63.0762 64.3968 63.6165 64.3263C64.7441 64.1619 64.0629 63.8097 62.6064 63.8097C61.1499 63.8097 60.4686 64.1619 61.6197 64.3263C62.113 64.3968 62.1365 64.4907 62.207 67.4964C62.2305 69.3749 62.1835 70.6194 62.0425 70.6194C61.8076 70.6194 60.0927 68.6704 57.4616 65.5004L56.0756 63.8097H54.6895C53.8203 63.8097 53.3505 63.9036 53.4445 64.0445Z" fill="white"/>
<path d="M65.026 63.9741C64.979 64.0915 65.0025 64.5846 65.073 65.1012C65.214 66.017 65.3079 65.9935 65.6603 64.8664C65.7308 64.6081 66.1067 64.5142 67.0698 64.5142H68.3619V68.3652C68.3619 70.4785 68.2914 72.3806 68.221 72.5919C68.1505 72.8032 67.8921 72.9676 67.6571 72.9676C67.3987 72.9676 67.1403 73.0615 67.0698 73.2024C66.9759 73.3433 67.7276 73.4372 69.1606 73.4372C70.4057 73.4372 71.4159 73.3433 71.4159 73.2259C71.4159 73.1085 71.181 72.9676 70.8991 72.9206C70.3587 72.8502 70.3587 72.8032 70.2883 68.6704L70.2413 64.4907L71.5803 64.5611C72.7314 64.6316 72.9429 64.702 73.0133 65.1012C73.2013 66.1109 73.5302 65.9935 73.5302 64.9134V63.8097H69.3251C66.9994 63.8097 65.073 63.8802 65.026 63.9741Z" fill="white"/>
<path d="M86.4508 64.0211C86.4508 64.1385 86.6622 64.2794 86.9206 64.3498C87.367 64.4672 87.3905 64.6785 87.3905 68.7174C87.3905 72.8032 87.367 72.9676 86.9206 72.9676C86.6622 72.9676 86.4508 73.0615 86.4508 73.2024C86.4508 73.3433 87.273 73.4372 88.4476 73.4372C89.6222 73.4372 90.4444 73.3433 90.4444 73.2024C90.4444 73.0615 90.2565 72.9676 89.9981 72.9676C89.3873 72.9676 89.2698 72.1457 89.2698 68.013V64.5142H90.327C91.666 64.5142 92.3238 65.1012 92.3238 66.2753C92.3238 67.3085 91.4546 68.2713 90.5619 68.2713C90.2095 68.2713 89.9746 68.3652 90.0216 68.4591C90.0686 68.5765 90.7733 69.7271 91.619 71.0421L93.146 73.4372H94.3676C95.0489 73.4372 95.6127 73.3198 95.6127 73.2024C95.6127 73.0615 95.4717 72.9676 95.3308 72.9676C95.0959 72.9676 92.4178 69.234 92.1359 68.5061C92.0889 68.4121 92.4178 68.1069 92.8641 67.8251C94.4616 66.8389 94.6025 64.9134 93.1225 64.2089C92.4882 63.9036 91.619 63.8097 89.3873 63.8097C87.7663 63.8097 86.4508 63.9036 86.4508 64.0211Z" fill="white"/>
<path d="M96.3175 64.0211C96.3175 64.1385 96.6464 64.2794 97.0222 64.3498L97.727 64.4907V68.4591C97.727 72.5449 97.633 72.9676 96.7168 72.9676C96.4819 72.9676 96.3645 73.0615 96.4349 73.2024C96.5054 73.3198 97.5391 73.4372 98.6902 73.4372C100.053 73.4372 100.757 73.3433 100.664 73.2024C100.593 73.0615 100.335 72.9676 100.1 72.9676C99.4889 72.9676 99.3714 72.3336 99.3949 68.8583C99.4419 65.0777 99.5594 64.4202 100.264 64.3263C100.546 64.2794 100.781 64.1385 100.781 64.0211C100.781 63.9036 99.7708 63.8097 98.5492 63.8097C97.3276 63.8097 96.3175 63.9036 96.3175 64.0211Z" fill="white"/>
<path d="M106.349 64.0915C106.278 64.2559 105.644 65.8292 104.939 67.5668C102.942 72.498 102.707 72.9676 102.19 72.9676C101.932 72.9676 101.721 73.0615 101.721 73.2024C101.721 73.3433 102.425 73.4372 103.365 73.4372C104.916 73.4372 105.667 73.085 104.493 72.9206C103.905 72.8502 103.835 72.1927 104.281 71.0186C104.516 70.4081 104.587 70.3846 106.372 70.3846H108.204L108.486 71.4413C108.862 72.8502 108.839 72.9676 108.298 72.9676C108.04 72.9676 107.829 73.0615 107.829 73.2024C107.829 73.3433 108.698 73.4372 109.943 73.4372C111.916 73.4372 112.691 73.1789 111.587 72.8972C111.305 72.8267 110.93 72.3336 110.624 71.6292C110.366 71.0186 109.919 70.0324 109.661 69.4453C109.144 68.3182 107.359 63.9976 107.359 63.8802C107.359 63.6688 106.443 63.8567 106.349 64.0915ZM107.053 67.9895C107.382 68.8113 107.594 69.5158 107.523 69.5862C107.476 69.6567 106.842 69.6802 106.114 69.6332L104.845 69.5628L105.456 67.966C105.785 67.0972 106.161 66.4162 106.278 66.4632C106.372 66.4866 106.748 67.1911 107.053 67.9895Z" fill="white"/>
<line x1="37.5616" y1="114.76" x2="54.5616" y2="83.7596" stroke="white"/>
</svg>
